# xmcd
#
# Track frame offsets: 
#        150
#        21788
#        45350
#        65018
#        83107
#        104679
#        124687
#        142863
#        165358
#        185501
#        203599
#        228087
#        253228
#        272093
#        295389
#        316067
#
# Disc length: 4419 seconds
#
# Revision: 0
# Processed by: cddbd v1.5.2PL0 Copyright (c) Steve Scherf et al.
# Submitted via: ExactAudioCopyFreeDBPlugin 1.0
#
DISCID=d9114110
DTITLE=Cam Ly - Chi yeu minh anh
DYEAR=1900
DGENRE=
TTITLE0=Tim lai dau yeu 
TTITLE1=Pho xua
TTITLE2=Pho cu vang anh
TTITLE3=Lang thang Intenet
TTITLE4=La ua
TTITLE5=Tinh yeu mong manh
TTITLE6=Chi yeu minh anh
TTITLE7=Noi dau ngay qua
TTITLE8=Chut tinh mong manh
TTITLE9=Con mo hoang duong
TTITLE10=Nguoi ve cuoi pho
TTITLE11=Tro lai pho cu
TTITLE12=Bon mat anh yeu
TTITLE13=Mua buon
TTITLE14=Tinh khong thay doi
TTITLE15=Ngay do xa nhau
EXTD=
EXTT0=
EXTT1=
EXTT2=
EXTT3=
EXTT4=
EXTT5=
EXTT6=
EXTT7=
EXTT8=
EXTT9=
EXTT10=
EXTT11=
EXTT12=
EXTT13=
EXTT14=
EXTT15=
PLAYORDER=
